<svg xmlns="http://www.w3.org/2000/svg" version="1.1" xmlns:xlink="http://www.w3.org/1999/xlink" xmlns:svgjs="http://svgjs.dev/svgjs" width="100%" height="100%" viewBox="0 0 1000 600"><rect width="1000" height="600" x="0" y="0" fill="#262223"/><g><rect width="333.3333333333333" height="333.3333333333333" rx="13.333333333333334" ry="13.333333333333334" y="260.0066939790128" fill="#ddc6b6" transform="matrix(0.5256862155063461,0,0,0.5256862155063461,0,75.70371068654991)" x="237.78443908691406"/><path d="M366.79689636605383 489.7574801059504L366.79689636605383 364.2060782367915L349.44175617913794 361.7668259003429L349.44175617913794 351.6733679564177L457.44175617913794 351.6733679564177L459.46044776792303 385.99112496576345L446.33895244082015 385.99112496576345L440.28287767446506 363.589255806885L388.3856814127828 362.18738664800645L388.3856814127828 420.72944272277283L424.91839169315665 420.11262029286627L428.36698982399776 403.37430253585694L439.049232814652 403.37430253585694L439.049232814652 450.589255806885L428.5632515062407 450.589255806885L424.91839169315665 433.0378539377261L388.3856814127828 432.2247698255766L388.3856814127828 489.7574801059504L419.871662721194 491.77617169473547L419.871662721194 501.6733679564177L350.64736365577346 501.6733679564177L350.64736365577346 491.77617169473547L366.79689636605383 489.7574801059504Z " fill="#262223" transform="matrix(0.5256862155063461,0,0,0.5256862155063461,0,75.70371068654991)"/><path d="M669.9882501984032 489.02275988629043L669.9882501984032 376.62316551064515L654.4511021594294 374.43943064894773L654.4511021594294 365.403286393648L751.1378456911368 365.403286393648L752.9450745421967 396.12617686166715L741.1980870103071 396.12617686166715L735.7764004571272 376.0709566950435L689.315558744461 374.8159366595852L689.315558744461 427.22557334032376L722.0213808685043 426.67336452472216L725.1087301557317 411.68842530135004L734.6719828259239 411.68842530135004L734.6719828259239 453.95750009558554L725.2844329606959 453.95750009558554L722.0213808685043 438.2446492516476L689.315558744461 437.51673763108187L689.315558744461 489.02275988629043L717.5033087408544 490.8299887373504L717.5033087408544 499.690430187686L655.5304193899235 499.690430187686L655.5304193899235 490.8299887373504L669.9882501984032 489.02275988629043ZM767.0263993400389 499.690430187686L767.0263993400389 490.8299887373504L780.5806157229885 489.7506715068563L780.5806157229885 413.29485094673663L767.5786081556405 410.0568992552543L767.5786081556405 400.29284337938867L792.5033060598423 397.0297912871971L792.8798120704798 397.0297912871971L796.845675382528 400.29284337938867L796.845675382528 403.55589547158024L796.3185669676355 417.6372202694224L796.845675382528 417.6372202694224Q798.6529042335881 414.57497138290415 803.3466791662021 409.68039324461677Q808.0655544995253 404.81091550703854 815.4701727087293 400.7446505921537Q822.8747909179332 396.6783856772688 831.5595295633046 396.6783856772688L831.5595295633046 396.6783856772688Q835.1739872654246 396.6783856772688 837.508324531377 397.58200010279876L837.508324531377 397.58200010279876L837.508324531377 417.81292307438656Q836.2533044959187 416.90930864885655 833.4420596164921 416.10609582616325Q830.6559151377746 415.30288300346996 827.2171602406189 415.30288300346996L827.2171602406189 415.30288300346996Q812.2071206165376 415.30288300346996 799.3808158541539 424.51473006373385L799.3808158541539 424.51473006373385L799.3808158541539 489.5749687018921L822.3225821023316 491.00569154231454L822.3225821023316 499.690430187686L767.0263993400389 499.690430187686ZM849.4310148682308 449.26372516297147Q849.4310148682308 432.998665503432 856.1328218575782 421.07597516657813Q862.8095284462163 409.15328482972427 873.7533031554127 402.90328505314193Q884.6719774638998 396.6783856772688 897.1468766163554 396.6783856772688L897.1468766163554 396.6783856772688Q919.9129400595689 396.6783856772688 931.4089235843669 411.1362164857484Q942.8798067084558 425.594047294228 942.8798067084558 449.0880223580074L942.8798067084558 449.0880223580074Q942.8798067084558 465.52878482251106 936.1779997191085 477.4514751593649Q929.5012931304703 489.3992658969279 918.5575184212739 495.5237636699644Q907.6388441127867 501.6733618437101 895.1639449603313 501.6733618437101L895.1639449603313 501.6733618437101Q872.3978815171178 501.6733618437101 860.9269983930288 487.21553103523047Q849.4310148682308 472.7577002267509 849.4310148682308 449.26372516297147L849.4310148682308 449.26372516297147ZM896.2432621908254 491.38219755295205Q908.7181613432809 491.38219755295205 915.3948679319191 481.06593286148484Q922.0966749212663 470.7747685707268 922.0966749212663 450.543845599139L922.0966749212663 450.543845599139Q922.0966749212663 430.46352503180617 915.9470767475207 418.7165374999165Q909.797478573775 406.96954996802685 896.2432621908254 406.96954996802685L896.2432621908254 406.96954996802685Q883.7683630383699 406.96954996802685 876.9912548468951 417.28581465949406Q870.2141466554202 427.5769789502521 870.2141466554202 447.8330023225491L870.2141466554202 447.8330023225491Q870.2141466554202 467.8882224891727 876.53944763413 479.63521002106233Q882.8647486128399 491.38219755295205 896.2432621908254 491.38219755295205L896.2432621908254 491.38219755295205ZM970.1639422793193 489.1984626912546L970.1639422793193 413.29485094673663L957.1619347119712 410.0568992552543L957.1619347119712 400.29284337938867L982.990247041703 397.0297912871971L983.5424558573047 397.0297912871971L987.3326163643889 400.29284337938867L987.3326163643889 407.8731643935568L987.1569135594247 412.21553371624253Q993.6579173430986 406.44244155313436 1004.325587644494 401.7486666205203Q1014.9932579458897 397.0297912871971 1024.7322134210463 397.0297912871971L1024.7322134210463 397.0297912871971Q1036.1277953430074 397.0297912871971 1042.3526947188807 401.3721606098828Q1048.6026944954629 405.71452993256855 1051.1378349670886 414.65027258503164Q1053.6478750380052 423.6111156382039 1053.6478750380052 438.7968580672493L1053.6478750380052 438.7968580672493L1053.6478750380052 489.3992658969279L1066.298476995425 490.6542859323862L1066.298476995425 499.690430187686L1023.4771933855878 499.690430187686L1023.4771933855878 490.8299887373504L1034.6719721018758 489.3992658969279L1034.6719721018758 438.59605486157596Q1034.6719721018758 427.95348496088957 1033.2412492614535 421.87918798927143Q1031.7854260203217 415.82999141836245 1027.8195627082735 412.8430437339717Q1023.828598995516 409.8811964502901 1016.248277981348 409.8811964502901L1016.248277981348 409.8811964502901Q1009.747274197674 409.8811964502901 1002.34265598847 413.1191481417725Q994.9129373785569 416.3822002339641 989.1398452154486 420.7245695566498L989.1398452154486 420.7245695566498L989.1398452154486 489.1984626912546L1001.4390415629401 490.8299887373504L1001.4390415629401 499.690430187686L958.7683603573579 499.690430187686L958.7683603573579 490.8299887373504L970.1639422793193 489.1984626912546ZM1110.2241782364654 501.49765903874595Q1099.9330139457074 501.49765903874595 1094.8627330024558 496.80388410613193Q1089.7924520592042 492.11010917351786 1089.7924520592042 480.7145272515565L1089.7924520592042 480.7145272515565L1089.7924520592042 411.3119192907126L1076.7904444918563 411.3119192907126L1076.7904444918563 403.1793894609428Q1077.6940589173864 403.0036866559786 1081.8607254351077 401.9243694254845Q1086.0022915521204 400.84505219499033 1087.4581147932518 399.9414377694603L1087.4581147932518 399.9414377694603Q1090.3446608748059 398.30991172336456 1091.9761869209017 393.4153335850772L1091.9761869209017 393.4153335850772Q1093.4069097613242 390.0016790886306 1095.4149418180573 382.3962576737534Q1097.3978734740817 374.8159366595852 1097.7492790840101 373.3601134184536L1097.7492790840101 373.3601134184536L1108.4169493854056 373.3601134184536L1108.7683549953338 399.3892289538587L1138.9641370484605 399.3892289538587L1138.9641370484605 411.3119192907126L1108.7683549953338 411.3119192907126L1108.7683549953338 466.8089052586785Q1108.7683549953338 477.1000695494366 1109.4209654137721 481.26673606715815Q1110.0484754315012 485.40830218417057 1112.131808690362 486.688422620338Q1114.1900415485136 487.9434426557963 1119.2603224917652 487.9434426557963L1119.2603224917652 487.9434426557963Q1124.1298002293433 487.9434426557963 1130.003293995288 486.688422620338Q1135.8767877612331 485.40830218417057 1139.1398398534247 483.97757934374806L1139.1398398534247 483.97757934374806L1141.8506831300147 492.11010917351786Q1137.5083138073287 495.34806086500026 1127.8446595342998 498.4354101522277Q1118.181005261271 501.49765903874595 1110.2241782364654 501.49765903874595L1110.2241782364654 501.49765903874595ZM1197.3225686972714 501.6733618437101Q1175.460119679588 501.6733618437101 1163.9892365554988 487.3912338401947Q1152.51835343141 473.13420623738836 1152.51835343141 449.26372516297147L1152.51835343141 449.26372516297147Q1152.51835343141 433.5508743190336 1158.4671483994825 421.62818398217973Q1164.441043768264 409.68039324461677 1175.1840152717868 403.1793894609428Q1185.9520871760192 396.6783856772688 1199.682006363933 396.6783856772688L1199.682006363933 396.6783856772688Q1216.4992748390741 396.6783856772688 1225.7864231014655 405.99063434036935Q1235.0986717645662 415.30288300346996 1235.6508805801677 432.64725989350364L1235.6508805801677 432.64725989350364Q1235.6508805801677 443.6663358048275 1234.3707601440003 449.43942796793567L1234.3707601440003 449.43942796793567L1172.2221679881054 449.43942796793567Q1172.5735735980338 467.336013673571 1180.5304006228394 478.2797883827674Q1188.4872276476449 489.1984626912546 1203.1207612610888 489.1984626912546L1203.1207612610888 489.1984626912546Q1210.3496766653284 489.1984626912546 1218.2061020872975 486.5880210175013Q1226.0625275092666 483.97757934374806 1230.404896831952 480.36312164162814L1230.404896831952 480.36312164162814L1233.843651729108 488.2948482657246Q1228.5976679808923 493.7165348189045 1218.3065036901342 497.7074985316618Q1207.9902389986669 501.6733618437101 1197.3225686972714 501.6733618437101L1197.3225686972714 501.6733618437101ZM1172.3978707930696 439.87617529774343L1215.7713632185082 439.87617529774343Q1216.2984716334008 436.08601479065936 1216.2984716334008 432.095051077902L1216.2984716334008 432.095051077902Q1216.1227688284366 420.3480635460123 1211.3285922929858 413.5709553545375Q1206.5595161582446 406.79384716306265 1196.243251466777 406.79384716306265L1196.243251466777 406.79384716306265Q1185.776384371055 406.79384716306265 1179.5263845944728 414.39926857793995Q1173.3014852185995 421.9795895921081 1172.3978707930696 439.87617529774343L1172.3978707930696 439.87617529774343ZM1262.0314017255014 489.1984626912546L1262.0314017255014 413.29485094673663L1249.0293941581533 410.0568992552543L1249.0293941581533 400.29284337938867L1274.857706487885 397.0297912871971L1275.4099153034867 397.0297912871971L1279.2000758105705 400.29284337938867L1279.2000758105705 407.8731643935568L1279.0243730056068 412.21553371624253Q1285.5253767892805 406.44244155313436 1296.193047090676 401.7486666205203Q1306.8607173920718 397.0297912871971 1316.599672867228 397.0297912871971L1316.599672867228 397.0297912871971Q1327.9952547891894 397.0297912871971 1334.220154165063 401.3721606098828Q1340.470153941645 405.71452993256855 1343.0052944132708 414.65027258503164Q1345.5153344841874 423.6111156382039 1345.5153344841874 438.7968580672493L1345.5153344841874 438.7968580672493L1345.5153344841874 489.3992658969279L1358.1659364416068 490.6542859323862L1358.1659364416068 499.690430187686L1315.3446528317695 499.690430187686L1315.3446528317695 490.8299887373504L1326.539431548058 489.3992658969279L1326.539431548058 438.59605486157596Q1326.539431548058 427.95348496088957 1325.1087087076353 421.87918798927143Q1323.6528854665034 415.82999141836245 1319.6870221544555 412.8430437339717Q1315.696058441698 409.8811964502901 1308.11573742753 409.8811964502901L1308.11573742753 409.8811964502901Q1301.6147336438562 409.8811964502901 1294.210115434652 413.1191481417725Q1286.780396824739 416.3822002339641 1281.0073046616308 420.7245695566498L1281.0073046616308 420.7245695566498L1281.0073046616308 489.1984626912546L1293.3065010091223 490.8299887373504L1293.3065010091223 499.690430187686L1250.63581980354 499.690430187686L1250.63581980354 490.8299887373504L1262.0314017255014 489.1984626912546ZM1410.2241675124174 501.6733618437101Q1399.3807944060577 501.6733618437101 1390.3446501507578 496.2516752905302Q1381.308505895458 490.8299887373504 1375.9872209451146 479.63521002106233Q1370.6408355940625 468.4153309040652 1370.6408355940625 451.97456843956144L1370.6408355940625 451.97456843956144Q1370.6408355940625 436.61312320555186 1376.9661365727725 423.9625212481322Q1383.291437551482 411.3119192907126 1395.1388266862086 404.00770268434525Q1406.9611154202257 396.6783856772688 1423.050472274801 396.6783856772688L1423.050472274801 396.6783856772688Q1432.262319335065 396.6783856772688 1439.8677407499422 398.6613173332929L1439.8677407499422 398.6613173332929L1439.8677407499422 364.8761779787555L1421.4189462287054 362.6924431170581L1421.4189462287054 354.93641929792574L1453.9490655477844 351.67336720573417L1454.501274363386 351.67336720573417L1458.4671376754345 354.5599132872882L1458.4671376754345 490.4785831274221L1468.9591051718658 490.4785831274221L1468.9591051718658 498.78681576215604Q1463.1860130087575 500.04183579761434 1458.9189448881993 500.76974741818015Q1454.6769771683503 501.49765903874595 1449.9832022357364 501.49765903874595L1449.9832022357364 501.49765903874595Q1445.289427303122 501.49765903874595 1443.306495647098 499.86613299265014Q1441.298463590365 498.2346069465543 1441.298463590365 493.0137235990478L1441.298463590365 493.0137235990478L1441.298463590365 487.21553103523047Q1436.2532830478222 493.36512920897616 1428.020351615216 497.53179572669774Q1419.8125205833185 501.6733618437101 1410.2241675124174 501.6733618437101L1410.2241675124174 501.6733618437101ZM1417.453082916657 488.8470570813263Q1424.5062955159328 488.8470570813263 1430.6558936896781 485.68440659197137Q1436.7803914627148 482.52175610261645 1439.8677407499422 478.3550895848949L1439.8677407499422 478.3550895848949L1439.8677407499422 412.21553371624253Q1438.4119175088108 410.0568992552543 1433.0906325584674 408.3249716063218Q1427.744247207415 406.6181443580985 1421.795452239343 406.6181443580985L1421.795452239343 406.6181443580985Q1407.6890270407916 406.6181443580985 1399.2803928032208 417.36111586162156Q1390.8968589663596 428.12918776585377 1390.8968589663596 450.543845599139L1390.8968589663596 450.543845599139Q1390.8968589663596 470.046856950161 1398.3014771755634 479.4595072160982Q1405.7060953847672 488.8470570813263 1417.453082916657 488.8470570813263L1417.453082916657 488.8470570813263ZM1568.532394785127 435.1824003651294L1568.532394785127 448.3601107374416L1495.5153291221632 448.3601107374416L1495.5153291221632 435.1824003651294L1568.532394785127 435.1824003651294ZM1622.7492603169258 489.1984626912546L1622.7492603169258 406.44244155313436Q1618.9590998098415 407.8731643935568 1610.8265699800718 409.8811964502901Q1602.694040150302 411.8641281063142 1597.6237592070506 412.59203972688L1597.6237592070506 412.59203972688L1595.8165303559904 402.4514778403769Q1605.0534778169636 400.4685461843528 1614.7171320899924 395.7747712517388Q1624.3807863630213 391.0809963191248 1630.8817901466955 385.48360696098075L1630.8817901466955 385.48360696098075L1631.0574929516597 385.48360696098075L1642.1016692636927 387.2908358120407L1642.1016692636927 489.1984626912546L1664.4912266962688 490.8299887373504L1664.4912266962688 499.690430187686L1599.4309880581104 499.690430187686L1599.4309880581104 490.8299887373504L1622.7492603169258 489.1984626912546Z " fill="#ddc6b6" transform="matrix(0.5256862155063461,0,0,0.5256862155063461,0,75.70371068654991)"/></g></svg>